<svg width="39" height="39" viewBox="0 0 39 39" fill="none" xmlns="http://www.w3.org/2000/svg">
<path d="M30.2607 3.65625H31.6875C33.7068 3.65625 35.3437 5.29321 35.3437 7.3125V32.9062C35.3437 34.9255 33.7068 36.5625 31.6875 36.5625H7.3125C5.29321 36.5625 3.65625 34.9255 3.65625 32.9062V7.3125C3.65625 5.29321 5.29321 3.65625 7.3125 3.65625H8.7393C9.24122 2.23617 10.5955 1.21875 12.1875 1.21875C13.7795 1.21875 15.1338 2.23617 15.6357 3.65625H16.0518C16.5537 2.23617 17.908 1.21875 19.5 1.21875C21.092 1.21875 22.4463 2.23617 22.9482 3.65625H23.3643C23.8662 2.23617 25.2205 1.21875 26.8125 1.21875C28.4045 1.21875 29.7588 2.23617 30.2607 3.65625Z" fill="#4A5764"/>
<path d="M6.09375 30.4687C6.09375 29.7957 6.6394 29.25 7.3125 29.25H31.6875C32.3606 29.25 32.9062 29.7957 32.9062 30.4687V32.9062C32.9062 33.5793 32.3606 34.125 31.6875 34.125H7.3125C6.6394 34.125 6.09375 33.5793 6.09375 32.9062V30.4687Z" fill="#7E8FA0"/>
<path d="M6.09375 18.2812H32.9062V30.4687C32.9062 31.1418 32.3606 31.6875 31.6875 31.6875H7.3125C6.6394 31.6875 6.09375 31.1418 6.09375 30.4687V18.2812Z" fill="url(#paint0_linear_1_86)"/>
<path d="M6.09375 7.3125C6.09375 6.6394 6.6394 6.09375 7.3125 6.09375H31.6875C32.3606 6.09375 32.9062 6.6394 32.9062 7.3125V15.8437H6.09375V7.3125Z" fill="url(#paint1_linear_1_86)"/>
<rect x="6.09375" y="15.8438" width="26.8125" height="2.4375" fill="#F74339"/>
<path fill-rule="evenodd" clip-rule="evenodd" d="M12.1875 6.09375C12.8606 6.09375 13.4062 6.6394 13.4062 7.3125V10.9687C13.4062 11.6418 12.8606 12.1875 12.1875 12.1875C11.5144 12.1875 10.9688 11.6418 10.9688 10.9687V7.3125C10.9688 6.6394 11.5144 6.09375 12.1875 6.09375ZM19.5 6.09375C20.1731 6.09375 20.7187 6.6394 20.7187 7.3125V10.9687C20.7187 11.6418 20.1731 12.1875 19.5 12.1875C18.8269 12.1875 18.2812 11.6418 18.2812 10.9687V7.3125C18.2812 6.6394 18.8269 6.09375 19.5 6.09375ZM26.8125 6.09375C27.4856 6.09375 28.0312 6.6394 28.0312 7.3125V10.9687C28.0312 11.6418 27.4856 12.1875 26.8125 12.1875C26.1394 12.1875 25.5937 11.6418 25.5937 10.9687V7.3125C25.5937 6.6394 26.1394 6.09375 26.8125 6.09375Z" fill="#F74339"/>
<path fill-rule="evenodd" clip-rule="evenodd" d="M12.1875 3.65625C12.8606 3.65625 13.4062 4.2019 13.4062 4.875V8.53125C13.4062 9.20435 12.8606 9.75 12.1875 9.75C11.5144 9.75 10.9688 9.20435 10.9688 8.53125V4.875C10.9688 4.2019 11.5144 3.65625 12.1875 3.65625ZM19.5 3.65625C20.1731 3.65625 20.7187 4.2019 20.7187 4.875V8.53125C20.7187 9.20435 20.1731 9.75 19.5 9.75C18.8269 9.75 18.2812 9.20435 18.2812 8.53125V4.875C18.2812 4.2019 18.8269 3.65625 19.5 3.65625ZM26.8125 3.65625C27.4856 3.65625 28.0312 4.2019 28.0312 4.875V8.53125C28.0312 9.20435 27.4856 9.75 26.8125 9.75C26.1394 9.75 25.5937 9.20435 25.5937 8.53125V4.875C25.5937 4.2019 26.1394 3.65625 26.8125 3.65625Z" fill="white"/>
<defs>
<linearGradient id="paint0_linear_1_86" x1="19.5" y1="18.2812" x2="19.5" y2="31.6875" gradientUnits="userSpaceOnUse">
<stop stop-color="white"/>
<stop offset="1" stop-color="#E2E5E9"/>
</linearGradient>
<linearGradient id="paint1_linear_1_86" x1="19.5" y1="6.09375" x2="19.5" y2="15.8437" gradientUnits="userSpaceOnUse">
<stop stop-color="#FFCAC7"/>
<stop offset="1" stop-color="#FF6860"/>
</linearGradient>
</defs>
</svg>
