<svg width="38" height="38" viewBox="0 0 38 38" fill="none" xmlns="http://www.w3.org/2000/svg">
<path fill-rule="evenodd" clip-rule="evenodd" d="M7.125 2.375H30.875C32.8425 2.375 34.4375 3.96998 34.4375 5.9375V32.0625C34.4375 34.03 32.8425 35.625 30.875 35.625H7.125C5.15749 35.625 3.5625 34.03 3.5625 32.0625V5.9375C3.5625 3.96999 5.15748 2.375 7.125 2.375Z" fill="#4B3980"/>
<path d="M5.9375 5.9375C5.9375 5.28166 6.46916 4.75 7.125 4.75H30.875C31.5308 4.75 32.0625 5.28166 32.0625 5.9375V32.0625C32.0625 32.7183 31.5308 33.25 30.875 33.25H7.125C6.46916 33.25 5.9375 32.7183 5.9375 32.0625V5.9375Z" fill="#7558C6"/>
<rect x="5.9375" y="4.75" width="26.125" height="26.125" rx="0.59375" fill="url(#paint0_linear_1_93)"/>
<path d="M32.0625 8.16846L19.5938 20.6372L15.5095 16.553C14.8139 15.8574 13.6861 15.8574 12.9905 16.553L10.6855 18.858C10.3706 18.577 9.95522 18.4063 9.5 18.4063C8.51624 18.4063 7.71875 19.2038 7.71875 20.1875V22.5625C7.71875 23.283 8.15274 23.9325 8.81835 24.2082C9.48395 24.4839 10.2501 24.3315 10.7595 23.8221L14.25 20.3316L18.3342 24.4158C19.0298 25.1114 20.1577 25.1114 20.8533 24.4158L32.0625 13.2066V8.16846Z" fill="#7558C6"/>
<path d="M32.0625 5.79346L19.5938 18.2622L15.5095 14.178C14.8139 13.4824 13.6861 13.4824 12.9905 14.178L8.24047 18.928C7.54484 19.6236 7.54484 20.7514 8.24047 21.4471C8.93609 22.1427 10.0639 22.1427 10.7595 21.4471L14.25 17.9566L18.3342 22.0408C19.0298 22.7364 20.1577 22.7364 20.8533 22.0408L32.0625 10.8316V5.79346Z" fill="white"/>
<defs>
<linearGradient id="paint0_linear_1_93" x1="19" y1="4.75" x2="19" y2="30.875" gradientUnits="userSpaceOnUse">
<stop stop-color="#D5CCFF"/>
<stop offset="1" stop-color="#AD9CFF"/>
</linearGradient>
</defs>
</svg>
