<svg width="25" height="25" viewBox="0 0 25 25" fill="none" xmlns="http://www.w3.org/2000/svg">
<path d="M3.58267 4.06326L4.84451 2.80143C5.66249 1.98344 6.95494 1.8846 7.8878 2.5687L8.6847 3.15309C8.83474 3.08617 8.98689 3.02307 9.14102 2.9639L9.29125 1.98736C9.46715 0.844009 10.4509 0 11.6077 0L13.3923 0C14.5491 0 15.5328 0.844011 15.7087 1.98737L15.859 2.9639C16.0131 3.02307 16.1653 3.08617 16.3153 3.15309L17.1122 2.56869C18.0451 1.8846 19.3375 1.98344 20.1555 2.80142L21.4173 4.06326C21.8655 4.51147 22.0977 5.10352 22.1037 5.69711L22.1038 5.70499V7.26951C22.1061 7.67212 22.0046 8.07829 21.7966 8.44312L22.2314 8.51C23.3747 8.6859 24.2188 9.66969 24.2188 10.8265V14.1735C24.2188 15.3303 23.3747 16.3141 22.2314 16.49L21.7966 16.5569C22.0035 16.9198 22.1051 17.3237 22.1038 17.7243V19.2718C22.1057 19.8758 21.8734 20.4806 21.4173 20.9367L20.1555 22.1986C19.3375 23.0166 18.0451 23.1154 17.1122 22.4313L16.3153 21.8469C16.1653 21.9138 16.0131 21.9769 15.859 22.0361L15.7087 23.0126C15.5328 24.156 14.5491 25 13.3923 25H11.6077C10.4509 25 9.46715 24.156 9.29125 23.0126L9.14102 22.0361C8.98689 21.9769 8.83475 21.9138 8.6847 21.8469L7.8878 22.4313C6.95494 23.1154 5.6625 23.0166 4.84451 22.1986L3.58267 20.9367C3.12791 20.482 2.89564 19.8793 2.8962 19.277V17.7189C2.89582 17.3201 2.9974 16.9182 3.20337 16.5569L2.76862 16.49C1.62526 16.3141 0.78125 15.3303 0.78125 14.1735V10.8265C0.78125 9.66969 1.62526 8.6859 2.76862 8.51L3.20336 8.44312C2.99647 8.08019 2.89492 7.67632 2.89621 7.27573V5.7283C2.89428 5.12425 3.12655 4.51938 3.58267 4.06326Z" fill="#4A5764"/>
<path d="M11.6077 1.5625C11.2221 1.5625 10.8942 1.84384 10.8356 2.22495L10.617 3.64573C10.5695 3.95441 10.3415 4.2017 10.045 4.29977C9.68091 4.42019 9.32866 4.56667 8.99048 4.73699C8.7115 4.8775 8.37537 4.86386 8.12347 4.67914L6.96379 3.8287C6.65284 3.60067 6.22202 3.63362 5.94936 3.90628L4.68753 5.16811C4.53509 5.32055 4.45758 5.52241 4.45871 5.72513V7.27891C4.4578 7.44168 4.50758 7.60544 4.60995 7.74504L5.29871 8.68426C5.21877 8.87373 5.14609 9.06702 5.08102 9.26377C4.98295 9.56028 4.73566 9.78826 4.42698 9.83575L3.00621 10.0543C2.62509 10.113 2.34375 10.4409 2.34375 10.8265V14.1735C2.34375 14.5591 2.62509 14.887 3.0062 14.9457L4.42698 15.1642C4.73566 15.2117 4.98295 15.4397 5.08102 15.7362C5.14609 15.933 5.21877 16.1263 5.29871 16.3157L4.60995 17.255C4.50823 17.3937 4.45844 17.5563 4.4587 17.718V19.278C4.45838 19.4796 4.53587 19.6802 4.68753 19.8319L5.94936 21.0937C6.22203 21.3664 6.65284 21.3993 6.96379 21.1713L8.12347 20.3209C8.37537 20.1361 8.7115 20.1225 8.99048 20.263C9.32866 20.4333 9.68091 20.5798 10.045 20.7002C10.3415 20.7983 10.5695 21.0456 10.617 21.3543L10.8356 22.775C10.8942 23.1562 11.2221 23.4375 11.6077 23.4375H13.3923C13.7779 23.4375 14.1058 23.1562 14.1644 22.775L14.383 21.3543C14.4305 21.0456 14.6585 20.7983 14.955 20.7002C15.3191 20.5798 15.6713 20.4333 16.0095 20.263C16.2885 20.1225 16.6246 20.1361 16.8765 20.3209L18.0362 21.1713C18.3472 21.3993 18.778 21.3664 19.0506 21.0937L20.3125 19.8319C20.4649 19.6795 20.5424 19.4776 20.5413 19.2749V17.7212C20.5422 17.5584 20.4924 17.3946 20.39 17.255L19.7013 16.3157C19.7812 16.1263 19.8539 15.933 19.919 15.7362C20.017 15.4397 20.2643 15.2117 20.573 15.1642L21.9938 14.9457C22.3749 14.887 22.6562 14.5591 22.6562 14.1735V10.8265C22.6562 10.4409 22.3749 10.113 21.9938 10.0543L20.573 9.83575C20.2643 9.78826 20.017 9.56028 19.919 9.26377C19.8539 9.06702 19.7812 8.87373 19.7013 8.68425L20.39 7.74504C20.4932 7.60442 20.5429 7.43929 20.5413 7.27536V5.71287C20.5393 5.51429 20.4618 5.31747 20.3125 5.16811L19.0506 3.90628C18.778 3.63362 18.3472 3.60067 18.0362 3.8287L16.8765 4.67914C16.6246 4.86386 16.2885 4.8775 16.0095 4.73699C15.6713 4.56667 15.3191 4.42019 14.955 4.29977C14.6585 4.2017 14.4305 3.95441 14.383 3.64573L14.1644 2.22496C14.1058 1.84384 13.7779 1.5625 13.3923 1.5625H11.6077Z" fill="#7E8FA0"/>
<path d="M10.8356 2.22495C10.8942 1.84384 11.2221 1.5625 11.6077 1.5625H13.3923C13.7779 1.5625 14.1058 1.84384 14.1644 2.22496L14.4613 4.15448C15.1723 4.3383 15.844 4.61972 16.4613 4.9836L18.0362 3.8287C18.3472 3.60067 18.778 3.63362 19.0506 3.90628L20.3125 5.16811C20.5851 5.44077 20.6181 5.87159 20.39 6.18254L19.2352 7.7574C19.599 8.37473 19.8804 9.04648 20.0643 9.75748L21.9938 10.0543C22.3749 10.113 22.6562 10.4409 22.6562 10.8265V12.611C22.6562 12.9966 22.3749 13.3245 21.9938 13.3832L20.0643 13.68C19.8804 14.391 19.599 15.0628 19.2352 15.6801L20.39 17.255C20.6181 17.5659 20.5851 17.9967 20.3125 18.2694L19.0506 19.5312C18.778 19.8039 18.3472 19.8368 18.0362 19.6088L16.4613 18.4539C15.844 18.8178 15.1723 19.0992 14.4613 19.283L14.1644 21.2125C14.1058 21.5937 13.7779 21.875 13.3923 21.875H11.6077C11.2221 21.875 10.8942 21.5937 10.8356 21.2125L10.5387 19.283C9.82773 19.0992 9.15599 18.8178 8.53865 18.4539L6.96379 19.6088C6.65284 19.8368 6.22203 19.8039 5.94936 19.5312L4.68753 18.2694C4.41487 17.9967 4.38192 17.5659 4.60995 17.255L5.76485 15.6801C5.40097 15.0628 5.11955 14.391 4.93573 13.68L3.0062 13.3832C2.62509 13.3245 2.34375 12.9966 2.34375 12.611V10.8265C2.34375 10.4409 2.62509 10.113 3.00621 10.0543L4.93573 9.75748C5.11955 9.04648 5.40097 8.37474 5.76485 7.7574L4.60995 6.18254C4.38192 5.87159 4.41487 5.44078 4.68753 5.16811L5.94936 3.90628C6.22202 3.63362 6.65284 3.60067 6.96379 3.8287L8.53865 4.9836C9.15598 4.61972 9.82773 4.3383 10.5387 4.15448L10.8356 2.22495Z" fill="url(#paint0_linear_1_95)"/>
<circle cx="12.5" cy="11.7188" r="4.6875" fill="#4A5764"/>
<path d="M17.1227 12.5C17.1653 12.2459 17.1875 11.9849 17.1875 11.7188C17.1875 9.12992 15.0888 7.03125 12.5 7.03125C9.91117 7.03125 7.8125 9.12992 7.8125 11.7188C7.8125 11.9849 7.83469 12.2459 7.87731 12.5C8.24925 10.283 10.1773 8.59375 12.5 8.59375C14.8227 8.59375 16.7508 10.283 17.1227 12.5Z" fill="#7E8FA0"/>
<path d="M12.5 16.4062C14.2259 16.4062 15.625 15.0071 15.625 13.2812V11.7188H9.375V13.2812C9.375 15.0071 10.7741 16.4062 12.5 16.4062Z" fill="#7E8FA0"/>
<circle cx="12.5" cy="11.7188" r="3.125" fill="#F0F2F4"/>
<defs>
<linearGradient id="paint0_linear_1_95" x1="12.5" y1="1.5625" x2="12.5" y2="21.875" gradientUnits="userSpaceOnUse">
<stop stop-color="#E2E5E9"/>
<stop offset="1" stop-color="#C4CCD4"/>
</linearGradient>
</defs>
</svg>
