<svg width="40" height="40" viewBox="0 0 40 40" fill="none" xmlns="http://www.w3.org/2000/svg">
<path d="M36.25 13.7382V35C36.25 37.0711 34.5711 38.75 32.5 38.75H7.5C5.42893 38.75 3.75 37.0711 3.75 35V13.7382C3.75 12.1777 4.47854 10.7067 5.71978 9.76103L17.3627 0.890198C18.1207 0.312737 19.0472 0 20 0C20.9528 0 21.8793 0.312738 22.6373 0.890198L34.2802 9.76103C35.5215 10.7067 36.25 12.1777 36.25 13.7382Z" fill="#4A5764"/>
<path d="M6.25 13.7382C6.25 12.958 6.61427 12.2225 7.23489 11.7496L18.8779 2.87878C19.2003 2.63307 19.5946 2.5 20 2.5V2.5C20.4054 2.5 20.7997 2.63307 21.1221 2.87878L32.7651 11.7496C33.3857 12.2225 33.75 12.958 33.75 13.7382V35C33.75 35.6904 33.1904 36.25 32.5 36.25H7.5C6.80964 36.25 6.25 35.6904 6.25 35V13.7382Z" fill="#7E8FA0"/>
<path d="M6.25 13.7382C6.25 12.958 6.61427 12.2225 7.23489 11.7496L18.8779 2.87878C19.2003 2.63307 19.5946 2.5 20 2.5C20.4054 2.5 20.7997 2.63307 21.1221 2.87878L32.7651 11.7496C33.3857 12.2225 33.75 12.958 33.75 13.7382V32.5C33.75 33.1904 33.1904 33.75 32.5 33.75H7.5C6.80964 33.75 6.25 33.1904 6.25 32.5V13.7382Z" fill="url(#paint0_linear_1_92)"/>
<path d="M18.855 12.8467L6.25 21.25V16.2382C6.25 15.458 6.61427 14.7225 7.23489 14.2496L19.0394 5.25571C19.2571 5.08983 19.5232 5 19.7969 5H20.2031C20.4768 5 20.7429 5.08983 20.9606 5.25571L32.7651 14.2496C33.3857 14.7225 33.75 15.458 33.75 16.2382V21.25L21.145 12.8467C20.8059 12.6206 20.4075 12.5 20 12.5C19.5925 12.5 19.1941 12.6206 18.855 12.8467Z" fill="#7558C6"/>
<path d="M18.855 10.3467L6.25 18.75V13.7382C6.25 12.958 6.61427 12.2225 7.23489 11.7496L18.8779 2.87878C19.2003 2.63307 19.5946 2.5 20 2.5C20.4054 2.5 20.7997 2.63307 21.1221 2.87878L32.7651 11.7496C33.3857 12.2225 33.75 12.958 33.75 13.7382V18.75L21.145 10.3467C20.8059 10.1206 20.4075 10 20 10C19.5925 10 19.1941 10.1206 18.855 10.3467Z" fill="url(#paint1_linear_1_92)"/>
<path d="M16.25 23.75C16.25 21.6789 17.9289 20 20 20C22.0711 20 23.75 21.6789 23.75 23.75V31.25H16.25V23.75Z" fill="#E39F91"/>
<rect x="16.25" y="31.25" width="7.5" height="2.5" fill="#CC4C33"/>
<defs>
<linearGradient id="paint0_linear_1_92" x1="20" y1="2.5" x2="20" y2="33.75" gradientUnits="userSpaceOnUse">
<stop stop-color="white"/>
<stop offset="1" stop-color="#E2E5E9"/>
</linearGradient>
<linearGradient id="paint1_linear_1_92" x1="20" y1="2.5" x2="20" y2="18.75" gradientUnits="userSpaceOnUse">
<stop stop-color="#D5CCFF"/>
<stop offset="1" stop-color="#AD9CFF"/>
</linearGradient>
</defs>
</svg>
