<svg width="18" height="25" viewBox="0 0 18 25" fill="none" xmlns="http://www.w3.org/2000/svg">
<path d="M13.953 7.20443C13.8318 6.12868 13.3318 5.29534 12.453 4.70443C11.5742 4.10595 10.4681 3.80671 9.13478 3.80671C8.18024 3.80671 7.35448 3.95822 6.65751 4.26125C5.96054 4.55671 5.41887 4.9658 5.03251 5.48853C4.65372 6.00368 4.46433 6.5908 4.46433 7.24989C4.46433 7.80292 4.59311 8.28019 4.85069 8.68171C5.11584 9.08322 5.46054 9.42034 5.88478 9.69307C6.3166 9.95822 6.77872 10.1817 7.27114 10.3635C7.76357 10.5378 8.23705 10.6817 8.6916 10.7953L10.9643 11.3863C11.7068 11.5681 12.4681 11.8143 13.2484 12.1249C14.0287 12.4355 14.7522 12.8446 15.4189 13.3522C16.0855 13.8597 16.6234 14.4885 17.0325 15.2385C17.4492 15.9885 17.6575 16.8863 17.6575 17.9317C17.6575 19.2499 17.3166 20.4203 16.6348 21.4431C15.9605 22.4658 14.9795 23.2726 13.6916 23.8635C12.4113 24.4544 10.8621 24.7499 9.04387 24.7499C7.30145 24.7499 5.79387 24.4734 4.52114 23.9203C3.24842 23.3673 2.25221 22.5832 1.53251 21.5681C0.812811 20.5453 0.415084 19.3332 0.339327 17.9317H3.86205C3.93024 18.7726 4.20296 19.4734 4.68024 20.034C5.16508 20.587 5.78251 20.9999 6.53251 21.2726C7.29008 21.5378 8.11963 21.6703 9.02114 21.6703C10.0136 21.6703 10.8961 21.515 11.6689 21.2044C12.4492 20.8863 13.0628 20.4469 13.5098 19.8863C13.9568 19.3181 14.1802 18.6552 14.1802 17.8976C14.1802 17.2082 13.9833 16.6438 13.5893 16.2044C13.203 15.765 12.6764 15.4014 12.0098 15.1135C11.3507 14.8256 10.6045 14.5719 9.77114 14.3522L7.02114 13.6022C5.15751 13.0946 3.68024 12.3484 2.58933 11.3635C1.50599 10.3787 0.964327 9.07565 0.964327 7.45443C0.964327 6.11352 1.32796 4.94307 2.05524 3.94307C2.78251 2.94307 3.76736 2.16655 5.00978 1.61353C6.25221 1.05292 7.65372 0.772615 9.21433 0.772615C10.7901 0.772615 12.1802 1.04913 13.3848 1.60216C14.5969 2.15519 15.5514 2.91656 16.2484 3.88625C16.9454 4.84837 17.309 5.95443 17.3393 7.20443H13.953Z" fill="#757575"/>
</svg>
