<svg width="36" height="36" viewBox="0 0 36 36" fill="none" xmlns="http://www.w3.org/2000/svg">
<path d="M1.76568 28.7768L10.6588 17.2158L9.32947 15.8865C8.6709 15.2279 8.34096 14.3603 8.34096 13.5V11.25C8.34096 10.3897 8.6709 9.52208 9.32947 8.86351L10.125 8.06802C10.9689 7.2241 12.1135 6.75 13.3069 6.75H17.25L20.5877 4.24671L21.2645 2.21625C21.7057 0.892728 22.9443 0 24.3394 0C25.199 0 26.0234 0.341482 26.6313 0.949332L33.9256 8.24369C34.5335 8.85153 34.875 9.67595 34.875 10.5356V12.7856C34.875 14.1807 33.9822 15.4193 32.6587 15.8605L30.6283 16.5373L28.125 19.875V23.818C28.125 25.0115 27.6509 26.1561 26.8069 27L26.0115 27.7955C24.6934 29.1135 22.5565 29.1135 21.2385 27.7955L18.9309 25.4879L6.09814 35.3593C5.55809 35.7747 4.89585 36 4.21448 36C2.50821 36 1.125 34.6168 1.125 32.9105L1.125 30.6605C1.125 29.9792 1.35026 29.3169 1.76568 28.7768Z" fill="#812213"/>
<path d="M25.216 25.409C25.6379 24.9871 25.875 24.4148 25.875 23.818V19.875C25.875 19.3882 26.0329 18.9145 26.325 18.525L29.0391 14.9061C29.1764 14.7231 29.3663 14.5862 29.5834 14.5139L31.9472 13.7259C32.352 13.591 32.625 13.2122 32.625 12.7856V10.5356C32.625 10.2727 32.5205 10.0206 32.3346 9.83468L25.0403 2.54032C24.8544 2.35443 24.6023 2.25 24.3394 2.25C23.9127 2.25 23.534 2.52301 23.399 2.92776L22.6111 5.29161C22.5387 5.5087 22.4019 5.69856 22.2188 5.83585L18.6 8.55C18.2105 8.8421 17.7368 9 17.25 9H13.3069C12.7102 9 12.1379 9.23705 11.716 9.65901L10.9205 10.4545C10.7008 10.6742 10.591 10.9621 10.591 11.25V13.5C10.591 13.7879 10.7008 14.0758 10.9205 14.2955L22.8295 26.2045C23.2688 26.6438 23.9811 26.6438 24.4205 26.2045L25.216 25.409Z" fill="#F74339"/>
<path d="M22.8295 23.9545L10.9205 12.0455C10.4812 11.6062 10.4812 10.8938 10.9205 10.4545L11.716 9.65901C12.1379 9.23705 12.7102 9 13.307 9H17.25C17.7368 9 18.2105 8.8421 18.6 8.55L22.2189 5.83585C22.4019 5.69856 22.5388 5.5087 22.6111 5.29161L23.3991 2.92776C23.534 2.52301 23.9128 2.25 24.3394 2.25C24.6023 2.25 24.8544 2.35443 25.0403 2.54032L32.3347 9.83468C32.5206 10.0206 32.625 10.2727 32.625 10.5356C32.625 10.9622 32.352 11.341 31.9472 11.4759L29.5834 12.2639C29.3663 12.3362 29.1764 12.4731 29.0391 12.6561L26.325 16.275C26.0329 16.6645 25.875 17.1382 25.875 17.625V21.568C25.875 22.1648 25.6379 22.7371 25.216 23.159L24.4205 23.9545C23.9812 24.3938 23.2688 24.3938 22.8295 23.9545Z" fill="url(#paint0_linear_1_132)"/>
<path d="M14.625 15.75L3.54909 30.1487C3.4362 30.2954 3.375 30.4754 3.375 30.6605V32.9105C3.375 33.3742 3.75085 33.75 4.21448 33.75C4.39962 33.75 4.57957 33.6888 4.72631 33.5759L19.125 22.5V20.25L14.625 15.75Z" fill="#7E8FA0"/>
<path d="M3.54909 30.1487L14.625 15.75L19.125 20.25L4.72631 31.3259C4.57957 31.4388 4.39962 31.5 4.21448 31.5C3.75085 31.5 3.375 31.1242 3.375 30.6605C3.375 30.4754 3.4362 30.2954 3.54909 30.1487Z" fill="#F0F2F4"/>
<defs>
<linearGradient id="paint0_linear_1_132" x1="21.608" y1="2.25" x2="21.608" y2="24.284" gradientUnits="userSpaceOnUse">
<stop stop-color="#FFCAC7"/>
<stop offset="1" stop-color="#FF6860"/>
</linearGradient>
</defs>
</svg>
